<?xml version="1.0" encoding="UTF-8" standalone="no"?>
<svg
   xmlns:dc="http://purl.org/dc/elements/1.1/"
   xmlns:cc="http://creativecommons.org/ns#"
   xmlns:rdf="http://www.w3.org/1999/02/22-rdf-syntax-ns#"
   xmlns:svg="http://www.w3.org/2000/svg"
   xmlns="http://www.w3.org/2000/svg"
   xmlns:sodipodi="http://sodipodi.sourceforge.net/DTD/sodipodi-0.dtd"
   xmlns:inkscape="http://www.inkscape.org/namespaces/inkscape"
   width="256"
   height="256"
   viewBox="0 0 67.733333 67.733333"
   version="1.1"
   id="svg8"
   inkscape:version="1.0.2-2 (e86c870879, 2021-01-15)"
   sodipodi:docname="first.svg">
  <defs
     id="defs2" />
  <sodipodi:namedview
     id="base"
     pagecolor="#ffffff"
     bordercolor="#666666"
     borderopacity="1.0"
     inkscape:pageopacity="0.0"
     inkscape:pageshadow="2"
     inkscape:zoom="1.4142136"
     inkscape:cx="114.82165"
     inkscape:cy="142.41001"
     inkscape:document-units="px"
     inkscape:current-layer="layer5"
     inkscape:document-rotation="0"
     showgrid="false"
     units="px"
     width="256px"
     inkscape:window-width="1280"
     inkscape:window-height="697"
     inkscape:window-x="-8"
     inkscape:window-y="-8"
     inkscape:window-maximized="1" />
  <metadata
     id="metadata5">
    <rdf:RDF>
      <cc:Work
         rdf:about="">
        <dc:format>image/svg+xml</dc:format>
        <dc:type
           rdf:resource="http://purl.org/dc/dcmitype/StillImage" />
        <dc:title />
      </cc:Work>
    </rdf:RDF>
  </metadata>
  <g
     inkscape:groupmode="layer"
     id="layer3"
     inkscape:label="Icon Ring">
    <circle
       style="fill:#444444;fill-rule:evenodd;stroke-width:0.264246;fill-opacity:1"
       id="path163"
       cx="33.866665"
       cy="33.866665"
       r="33.866665" />
  </g>
  <g
     inkscape:label="Layer 1"
     inkscape:groupmode="layer"
     id="layer1" />
  <g
     inkscape:groupmode="layer"
     id="layer2"
     inkscape:label="Gridlines">
    <path
       style="fill:none;stroke:#000000;stroke-width:0.264583px;stroke-linecap:butt;stroke-linejoin:miter;stroke-opacity:1"
       d="m -14.259317,8.6098679 99.014572,-0.01091"
       id="path15" />
    <path
       style="fill:none;stroke:#000000;stroke-width:0.264583px;stroke-linecap:butt;stroke-linejoin:miter;stroke-opacity:1"
       d="M -14.108868,17.067432 92.042911,17.066936"
       id="path17" />
    <path
       style="fill:none;stroke:#000000;stroke-width:0.264583px;stroke-linecap:butt;stroke-linejoin:miter;stroke-opacity:1"
       d="m -17.190323,25.536565 99.014572,-0.01091"
       id="path15-0" />
    <path
       style="fill:none;stroke:#000000;stroke-width:0.264583px;stroke-linecap:butt;stroke-linejoin:miter;stroke-opacity:1"
       d="m -16.504299,34.001529 99.014572,-0.01091"
       id="path15-02" />
    <path
       id="path15-5"
       style="fill:none;stroke:#000000;stroke-width:0.264583px;stroke-linecap:butt;stroke-linejoin:miter;stroke-opacity:1"
       d="m 88.773739,59.38516 c -33.004857,0.0036 -66.009715,0.0073 -99.014572,0.01091" />
    <path
       style="fill:none;stroke:#000000;stroke-width:0.264583px;stroke-linecap:butt;stroke-linejoin:miter;stroke-opacity:1"
       d="m -16.530339,42.477985 99.014572,-0.01091"
       id="path15-8" />
    <path
       style="fill:none;stroke:#000000;stroke-width:0.264583px;stroke-linecap:butt;stroke-linejoin:miter;stroke-opacity:1"
       d="m -18.053004,50.928653 99.014572,-0.01091"
       id="path15-5-2" />
    <path
       style="fill:none;stroke:#000000;stroke-width:0.264583px;stroke-linecap:butt;stroke-linejoin:miter;stroke-opacity:1"
       d="M 8.5931265,-4.4649527 8.5871469,77.183919"
       id="path87" />
    <path
       style="fill:none;stroke:#000000;stroke-width:0.264583px;stroke-linecap:butt;stroke-linejoin:miter;stroke-opacity:1"
       d="m 17.071625,-4.4649527 -0.006,81.6488687"
       id="path87-3" />
    <path
       style="fill:none;stroke:#000000;stroke-width:0.264583px;stroke-linecap:butt;stroke-linejoin:miter;stroke-opacity:1"
       d="m 25.538291,-4.2333236 -0.006,81.6488726"
       id="path87-7" />
    <path
       style="fill:none;stroke:#000000;stroke-width:0.264583px;stroke-linecap:butt;stroke-linejoin:miter;stroke-opacity:1"
       d="m 34.004958,-4.2333236 -0.006,81.6488716"
       id="path87-8" />
    <path
       style="fill:none;stroke:#000000;stroke-width:0.264583px;stroke-linecap:butt;stroke-linejoin:miter;stroke-opacity:1"
       d="m 42.471625,-4.2333236 -0.006,81.6488766"
       id="path87-38" />
    <path
       style="fill:none;stroke:#000000;stroke-width:0.264583px;stroke-linecap:butt;stroke-linejoin:miter;stroke-opacity:1"
       d="m 50.938291,-4.2333236 -0.006,81.6488686"
       id="path87-1" />
    <path
       style="fill:none;stroke:#000000;stroke-width:0.264583px;stroke-linecap:butt;stroke-linejoin:miter;stroke-opacity:1"
       d="m 59.404958,-4.2333236 -0.006,81.6488686"
       id="path87-14" />
    <path
       style="fill:#ffffff;stroke-width:0.264583"
       id="path989"
       d="m 23.285742,11.488927 c -0.620261,0.377998 0.508848,-0.263451 0.737055,-0.434506 0.09118,-0.06835 -0.213912,0.08136 -0.325471,0.104601 -0.569233,0.118604 -0.697553,0.05158 -1.146999,-0.272749 -0.07437,-0.14152 -0.185898,-0.269079 -0.223098,-0.424561 -0.220122,-0.9200312 0.353889,-2.1980438 0.91422,-2.8968555 0.181391,-0.226219 0.409593,-0.4105412 0.614389,-0.6158121 0.234104,-0.1632286 0.464656,-0.331674 0.702312,-0.4896858 0.121195,-0.08058 -0.498295,0.2583005 -0.352761,0.2572776 0.255615,-0.0018 0.475677,-0.1897393 0.721489,-0.2598687 0.755962,-0.2156735 1.184662,-0.1982674 1.942689,-0.089388 0.92715,0.2624949 1.729848,0.8524025 2.011029,1.8133835 0.05479,0.1872684 0.06738,0.3843795 0.101068,0.5765694 -0.01098,0.2103072 0.0016,0.4231515 -0.0329,0.630922 -0.196977,1.1909626 -1.039058,2.2370916 -1.885807,3.0469196 -0.281919,0.269628 -0.593802,0.506071 -0.890705,0.759107 -0.330989,0.232441 -0.661928,0.464955 -0.992969,0.697324 -0.02429,0.01705 0.100046,-0.06296 0.07272,-0.05137 -1.145538,0.486008 -1.122449,0.568308 -2.351069,0.884256 -0.939678,0.241645 -1.878379,0.362347 -2.835132,0.510363 -1.450333,0.18466 -2.891582,0.485631 -4.249924,1.040699 -1.200075,0.490395 -2.650631,1.339142 -3.65141,2.036644 -0.398991,0.278081 -0.729826,0.642995 -1.09474,0.964493 -1.3091904,1.532826 -0.700171,0.727164 -1.8248395,2.41866 0,0 0.051553,-0.02219 0.051553,-0.02219 v 0 c 1.5743345,-1.877584 0.7461185,-0.984328 2.4822505,-2.68199 0.459308,-0.354587 0.916855,-0.711467 1.377925,-1.063761 0.112122,-0.08567 0.216722,-0.184298 0.341564,-0.250065 1.728169,-0.910411 3.595568,-1.444047 5.533761,-1.667332 0.822706,-0.121989 2.006355,-0.278005 2.820471,-0.474791 2.038823,-0.49282 3.871303,-1.58208 5.53434,-2.833639 0.294523,-0.257737 0.604461,-0.498856 0.88357,-0.773212 0.854168,-0.83962 1.720268,-1.9385988 1.905506,-3.1581329 0.03324,-0.2188107 0.01842,-0.442258 0.0276,-0.6633869 -0.03802,-0.2019859 -0.0531,-0.409679 -0.114095,-0.6059525 C 29.779208,6.5029831 28.938598,5.8786095 27.973544,5.590881 27.762194,5.5559742 27.553332,5.4988234 27.339493,5.4861605 25.60231,5.3832892 24.016671,6.4671984 22.685687,7.4357764 c -0.20187,0.2136637 -0.426236,0.4081203 -0.60561,0.6409909 -0.583948,0.7581067 -1.170587,2.0944007 -0.967158,3.0763467 0.03689,0.178066 0.15682,0.328148 0.23523,0.492223 0.124183,0.09925 0.230551,0.22627 0.372549,0.297741 0.873002,0.439402 2.193613,-0.451795 2.720106,-0.936959 0,0 -1.155062,0.482809 -1.155062,0.482808 z" />
  </g>
  <g
     inkscape:groupmode="layer"
     id="layer4"
     inkscape:label="sketch"
     style="display:none">
    <path
       style="fill:#000000;fill-opacity:1;fill-rule:nonzero;stroke:none;stroke-width:0.264583"
       id="path221"
       d="m 13.983363,28.867044 c 0.364382,0.955977 0.612839,1.951792 0.894822,2.934118 0.343113,1.119709 0.560474,2.271263 0.6861,3.434165 0.07508,0.50261 0.168694,1.001657 0.209077,1.508635 0.03055,0.344332 0.03497,0.676569 -0.04644,1.011889 -0.160701,0.645953 -0.451676,1.25721 -0.735304,1.857361 -0.145093,0.356053 -0.342991,0.685697 -0.52426,1.023589 0,0 2.494321,-1.123411 2.494321,-1.123411 v 0 c 0.170537,-0.336944 0.342035,-0.673684 0.4901,-1.021368 0.290428,-0.63151 0.614513,-1.264766 0.769714,-1.94577 0.05788,-0.358108 0.03198,-0.720269 0.003,-1.080492 -0.055,-0.502843 -0.165614,-0.995373 -0.258346,-1.492184 -0.166202,-1.165796 -0.438129,-2.312812 -0.748097,-3.448235 -0.285652,-0.994381 -0.530498,-1.999406 -0.80348,-2.997237 0,0 -2.431153,1.33894 -2.431153,1.33894 z" />
    <path
       style="fill:#000000;fill-opacity:1;fill-rule:nonzero;stroke:none;stroke-width:0.264583"
       id="path223"
       d="m 16.809932,29.759023 c 1.754227,-0.409141 3.549548,-0.607843 5.340508,-0.775057 0.718034,-0.06543 1.438083,-0.104063 2.158946,-0.113877 0.565468,0.04945 1.045153,-0.204081 1.534982,-0.450045 0.439885,-0.237292 0.900249,-0.425588 1.381982,-0.556591 0,0 2.187987,-1.670094 2.187987,-1.670094 v 0 c -0.503877,0.106728 -0.986948,0.277446 -1.442101,0.521697 -0.451498,0.234299 -0.907274,0.549476 -1.434914,0.530886 -0.755422,0.01386 -1.508698,0.07319 -2.259372,0.15861 -1.767038,0.199144 -3.53185,0.423386 -5.2886,0.699637 0,0 -2.179418,1.654834 -2.179418,1.654834 z" />
    <path
       style="fill:#000000;fill-opacity:1;fill-rule:nonzero;stroke:none;stroke-width:0.264583"
       id="path225"
       d="m 27.765901,27.935055 c 0.05505,1.235199 0.06111,2.467459 0.01582,3.703158 -0.04519,1.135952 -0.12482,2.270115 -0.178011,3.405656 -0.120664,1.981488 -0.30525,3.961294 -0.559324,5.930281 -0.09972,0.565888 -0.180922,1.153654 -0.448874,1.6715 -0.383575,0.741301 -3.308683,2.10073 2.009198,-1.036635 0.0099,0.06671 0.01228,0.06448 -0.0095,-0.0028 0,0 -2.424595,1.36126 -2.424595,1.36126 v 0 c 0.105438,0.229642 0.03642,0.119523 0.213932,0.32594 0.825448,-0.464788 1.664428,-0.906322 2.476342,-1.394362 0.04445,-0.02672 0.18551,-0.372578 0.195601,-0.40122 0.190561,-0.540946 0.256852,-1.112726 0.31995,-1.67953 0.188055,-2.007362 0.355399,-4.016205 0.667335,-6.009375 0.008,-1.115795 0.02917,-2.23148 0.06542,-3.34673 0.03935,-1.261266 0.09424,-2.521969 0.122356,-3.783492 0,0 -2.465683,1.256332 -2.465683,1.256332 z" />
    <path
       style="fill:#000000;fill-opacity:1;fill-rule:nonzero;stroke:none;stroke-width:0.264583"
       id="path227"
       d="m 28.087314,40.329463 c -0.88502,-0.157236 -1.783764,-0.226951 -2.679494,-0.29338 -1.01357,-0.03318 -2.025528,-0.05825 -3.038214,-0.121171 -0.526485,-0.03557 -1.05307,-0.06932 -1.580008,-0.09741 0,0 -2.221214,1.600452 -2.221214,1.600452 v 0 c 0.539661,0.01402 1.079167,0.03341 1.61821,0.06338 1.004436,0.05651 2.008112,0.119082 3.014195,0.137441 0.873219,0.04383 1.753557,0.0933 2.609546,0.281263 0,0 2.276979,-1.57057 2.276979,-1.57057 z" />
    <path
       style="fill:#000000;fill-opacity:1;fill-rule:nonzero;stroke:none;stroke-width:0.264583"
       id="path229"
       d="m 31.58871,34.116507 c 2.076704,-0.168259 4.158067,-0.261371 6.240073,-0.331033 0,0 2.106181,-1.544903 2.106181,-1.544903 v 0 c -2.032397,0.115975 -4.067109,0.256326 -6.103511,0.246489 0,0 -2.242743,1.629447 -2.242743,1.629447 z" />
    <path
       style="fill:#000000;fill-opacity:1;fill-rule:nonzero;stroke:none;stroke-width:0.264583"
       id="path231"
       d="m 45.534976,30.137573 c 0.08112,0.76413 -0.07401,1.494452 -0.270703,2.228472 -0.300553,0.745839 -0.464455,1.555213 -0.850646,2.263949 -0.131924,0.342125 -0.349043,0.625034 -0.550219,0.923515 -0.216488,0.523076 -0.423098,1.050579 -0.624454,1.581486 -0.293349,0.536692 -0.338495,1.247206 -0.810612,1.670275 0,0 2.548557,-1.083569 2.548557,-1.083569 v 0 c 0.328263,-0.5344 0.454728,-1.161629 0.720942,-1.726361 0.211002,-0.5251 0.418473,-1.06376 0.709861,-1.549398 0.210648,-0.294656 0.35375,-0.627017 0.509683,-0.952444 0.316237,-0.737045 0.496665,-1.527979 0.765942,-2.282439 0.199726,-0.768993 0.361024,-1.535345 0.32603,-2.334244 0,0 -2.474381,1.260758 -2.474381,1.260758 z" />
    <path
       style="fill:#000000;fill-opacity:1;fill-rule:nonzero;stroke:none;stroke-width:0.264583"
       id="path233"
       d="m 46.965057,30.164299 c 2.075844,-1.088602 4.246102,-1.971998 6.453264,-2.753434 0.927635,-0.285054 1.891419,-0.691669 2.881352,-0.564534 0.399241,0.07417 0.748128,0.288182 1.132338,0.411115 0,0 2.282224,-1.565369 2.282224,-1.565369 v 0 c -0.407416,-0.09508 -0.759452,-0.313033 -1.16119,-0.422388 -1.062024,-0.238637 -2.120411,0.253873 -3.115178,0.565052 -2.138357,0.77368 -4.256415,1.612089 -6.300221,2.612526 0,0 -2.172589,1.717032 -2.172589,1.717032 z" />
    <path
       style="fill:#000000;fill-opacity:1;fill-rule:nonzero;stroke:none;stroke-width:0.264583"
       id="path235"
       d="m 57.855077,28.112122 c -0.239795,2.454526 -0.558697,4.900385 -0.861089,7.347735 -0.150331,1.255742 -0.320551,2.51033 -0.401937,3.772993 -0.0039,0.08852 -0.0079,0.177041 -0.01185,0.265562 0,0 2.453291,-1.241261 2.453291,-1.241261 v 0 c 0.0011,-0.08543 0.0019,-0.170865 0.0029,-0.256296 0.02764,-1.225124 0.116636,-2.44783 0.231531,-3.667683 0.252794,-2.486523 0.548661,-4.974529 1.027486,-7.428693 0,0 -2.440369,1.207643 -2.440369,1.207643 z" />
    <path
       style="fill:#000000;fill-opacity:1;fill-rule:nonzero;stroke:none;stroke-width:0.264583"
       id="path237"
       d="m 56.567564,38.65595 c -0.20329,-0.01135 -0.40635,-0.02814 -0.60987,-0.03402 -3.300907,-0.09536 0.885068,0.07364 -3.05131,-0.07844 -1.552726,-0.05999 -3.104131,-0.146844 -4.655521,-0.233617 0,0 -2.038821,1.467837 -2.038821,1.467837 v 0 c 2.696303,0.08403 5.402154,0.15576 8.082513,0.473001 0,0 2.273009,-1.59476 2.273009,-1.594761 z" />
    <path
       style="fill:#000000;fill-opacity:1;fill-rule:nonzero;stroke:none;stroke-width:0.264583"
       id="path253"
       d="m 44.170388,48.957515 c -0.703929,0.112443 -1.408224,0.219094 -2.117143,0.294762 -0.553416,0.02122 -1.094322,0.111471 -1.634358,0.22797 -0.573328,0.145423 -1.147627,0.276836 -1.734632,0.352163 -0.793887,0.09709 -1.587809,0.171781 -2.386698,0.212929 -1.241165,0.06374 -2.447679,-0.215921 -3.639484,-0.522954 -1.053512,-0.255379 -0.52773,-0.13048 -1.577324,-0.37478 0,0 -2.163003,1.497949 -2.163003,1.497949 v 0 c 1.041683,0.23703 0.523531,0.110548 1.554485,0.379309 1.196253,0.331486 2.404891,0.644203 3.658331,0.609354 0.784984,-0.02792 1.567831,-0.06548 2.347513,-0.159168 0.595206,-0.06368 1.183804,-0.169291 1.757915,-0.342024 0.539467,-0.09933 1.070536,-0.2433 1.623441,-0.250894 0.699154,-0.07477 1.393727,-0.184861 2.091838,-0.263718 0,0 2.219119,-1.660898 2.219119,-1.660898 z" />
    <path
       style="fill:#000000;fill-opacity:1;fill-rule:nonzero;stroke:none;stroke-width:0.264583"
       id="path255"
       d="M 25.456079,36.048079 C 25.193183,35.630085 24.90155,35.234234 24.602796,34.841367 24.348328,34.5065 24.04617,34.211609 23.78811,33.879639 c 0,0 -2.373401,1.412893 -2.373401,1.412893 v 0 c 0.256472,0.334632 0.55699,0.630275 0.821567,0.957461 0.297047,0.380365 0.59261,0.760767 0.816424,1.191072 0,0 2.403379,-1.392986 2.403379,-1.392986 z" />
    <path
       style="fill:#000000;fill-opacity:1;fill-rule:nonzero;stroke:none;stroke-width:0.264583"
       id="path257"
       d="m 56.05831,34.163931 c -0.46953,-0.256492 -0.868939,-0.615709 -1.284454,-0.947801 -0.234283,-0.202893 -0.127323,-0.09929 -0.323398,-0.308205 0,0 -2.356268,1.433602 -2.356268,1.433602 v 0 c 0.219898,0.234474 0.101717,0.121169 0.356034,0.338365 0.42935,0.325544 0.827156,0.69229 1.275813,0.993063 0,0 2.332273,-1.509024 2.332273,-1.509024 z" />
    <path
       style="fill:#000000;fill-opacity:1;fill-rule:nonzero;stroke:none;stroke-width:0.264583"
       id="path290"
       d="m 15.406611,25.632296 c 2.607053,-0.635797 5.248201,-1.105683 7.901389,-1.499006 0,0 2.046052,-1.536167 2.046052,-1.536167 v 0 c -2.597589,0.435927 -5.187821,0.912425 -7.775767,1.401892 0,0 -2.171674,1.633281 -2.171674,1.633281 z" />
    <path
       style="fill:#000000;fill-opacity:1;fill-rule:nonzero;stroke:none;stroke-width:0.264583"
       id="path292"
       d="m 46.591508,23.550113 c 1.378148,-0.473171 2.782803,-0.86689 4.204755,-1.183916 0.144045,-0.02814 0.288089,-0.05628 0.432134,-0.08442 0,0 2.159061,-1.63431 2.159061,-1.63431 v 0 c -0.151324,0.03056 -0.302649,0.06112 -0.453972,0.09168 -1.409468,0.326805 -2.796808,0.736261 -4.186759,1.136582 0,0 -2.155219,1.674381 -2.155219,1.674381 z" />
  </g>
  <g
     inkscape:groupmode="layer"
     id="layer5"
     inkscape:label="sketch 1">
    <path
       style="fill:#ffffff;fill-opacity:1;fill-rule:nonzero;stroke:none;stroke-width:0.264583"
       id="path301"
       d="m 16.882123,29.764862 c 0.11908,0.435864 0.230975,0.869519 0.292232,1.318003 0.05085,0.432012 0.0563,0.867363 0.05898,1.301785 -0.03292,0.408432 0.03668,0.803873 0.09568,1.205568 0.0669,0.498594 0.08193,1.002348 0.09678,1.504628 0.01336,0.605123 0.0046,1.21045 0.0052,1.815666 0.02591,0.524938 -0.121966,1.028128 -0.241096,1.532826 -0.06522,0.443143 -0.262127,0.843285 -0.431275,1.252241 -0.201925,0.361141 -0.422095,0.712306 -0.606373,1.082948 -0.169316,0.358317 -0.460026,0.612015 -0.784118,0.826561 -0.165847,0.04907 -0.269572,0.147775 -0.37708,0.275439 0,0 2.561227,-1.04685 2.561227,-1.04685 v 0 c 0.126355,-0.08435 0.260664,-0.155105 0.378937,-0.25127 0.303144,-0.267817 0.565115,-0.556525 0.729962,-0.933355 0.200627,-0.363688 0.416185,-0.720222 0.58708,-1.099333 0.179717,-0.418415 0.340992,-0.841507 0.410946,-1.294622 0.118015,-0.520576 0.233242,-1.044268 0.201554,-1.582491 0.0011,-0.606579 -0.0063,-1.213081 -0.0094,-1.819643 -0.0052,-0.516221 -0.0249,-1.031608 -0.09333,-1.544026 -0.05418,-0.391502 -0.09078,-0.780783 -0.07434,-1.176833 -0.0089,-0.443343 -0.02599,-0.887227 -0.08796,-1.326885 -0.06867,-0.454903 -0.192215,-0.895707 -0.266247,-1.348804 0,0 -2.447317,1.308447 -2.447317,1.308447 z" />
    <path
       style="fill:#ffffff;fill-opacity:1;fill-rule:nonzero;stroke:none;stroke-width:0.264583"
       id="path301-2"
       d="m 33.097416,29.207795 c 0.11908,0.435864 0.230975,0.869519 0.292232,1.318003 0.05085,0.432012 0.0563,0.867363 0.05898,1.301785 -0.03292,0.408432 0.03668,0.803873 0.09568,1.205568 0.0669,0.498594 0.08193,1.002348 0.09678,1.504628 0.01336,0.605123 0.0046,1.21045 0.0052,1.815666 0.02591,0.524938 -0.121966,1.028128 -0.241096,1.532826 -0.06522,0.443143 -0.262127,0.843285 -0.431275,1.252241 -0.201925,0.361141 -0.422095,0.712306 -0.606373,1.082948 -0.169316,0.358317 -0.460026,0.612015 -0.784118,0.826561 -0.165847,0.04907 -0.269572,0.147775 -0.37708,0.275439 0,0 2.561227,-1.04685 2.561227,-1.04685 v 0 c 0.126355,-0.08435 0.260664,-0.155105 0.378937,-0.25127 0.303144,-0.267817 0.565115,-0.556525 0.729962,-0.933355 0.200627,-0.363688 0.416185,-0.720222 0.58708,-1.099333 0.179717,-0.418415 0.340992,-0.841507 0.410946,-1.294622 0.118015,-0.520576 0.233242,-1.044268 0.201554,-1.582491 0.0011,-0.606579 -0.0063,-1.213081 -0.0094,-1.819643 -0.0052,-0.516221 -0.0249,-1.031608 -0.09333,-1.544026 -0.05418,-0.391502 -0.09078,-0.780783 -0.07434,-1.176833 -0.0089,-0.443343 -0.02599,-0.887227 -0.08796,-1.326885 -0.06867,-0.454903 -0.192215,-0.895707 -0.266247,-1.348804 0,0 -2.447317,1.308447 -2.447317,1.308447 z" />
    <path
       style="fill:#ffffff;fill-opacity:1;fill-rule:nonzero;stroke:none;stroke-width:0.264583"
       id="path301-3"
       d="m 42.29686,29.020706 c 0.11908,0.435864 0.230975,0.869519 0.292232,1.318003 0.05085,0.432012 0.0563,0.867363 0.05898,1.301785 -0.03292,0.408432 0.03668,0.803873 0.09568,1.205568 0.0669,0.498594 0.08193,1.002348 0.09678,1.504628 0.01336,0.605123 0.0046,1.21045 0.0052,1.815666 0.02591,0.524938 -0.121966,1.028128 -0.241096,1.532826 -0.06522,0.443143 -0.262127,0.843285 -0.431275,1.252241 -0.201925,0.361141 -0.422095,0.712306 -0.606373,1.082948 -0.169316,0.358317 -0.460026,0.612015 -0.784118,0.826561 -0.165847,0.04907 -0.269572,0.147775 -0.37708,0.275439 0,0 2.561227,-1.04685 2.561227,-1.04685 v 0 c 0.126355,-0.08435 0.260664,-0.155105 0.378937,-0.25127 0.303144,-0.267817 0.565115,-0.556525 0.729962,-0.933355 0.200627,-0.363688 0.416185,-0.720222 0.58708,-1.099333 0.179717,-0.418415 0.340992,-0.841507 0.410946,-1.294622 0.118015,-0.520576 0.233242,-1.044268 0.201554,-1.582491 0.0011,-0.606579 -0.0063,-1.213081 -0.0094,-1.819643 -0.0052,-0.516221 -0.0249,-1.031608 -0.09333,-1.544026 -0.05418,-0.391502 -0.09078,-0.780783 -0.07434,-1.176833 -0.0089,-0.443343 -0.02599,-0.887227 -0.08796,-1.326885 -0.06867,-0.454903 -0.192215,-0.895707 -0.266247,-1.348804 0,0 -2.447317,1.308447 -2.447317,1.308447 z" />
    <path
       style="fill:#ffffff;fill-opacity:1;fill-rule:nonzero;stroke:none;stroke-width:0.264583"
       id="path301-7"
       d="m 58.728565,28.646528 c 0.11908,0.435864 0.230975,0.869519 0.292232,1.318003 0.05085,0.432012 0.0563,0.867363 0.05898,1.301785 -0.03292,0.408432 0.03668,0.803873 0.09568,1.205568 0.0669,0.498594 0.08193,1.002348 0.09678,1.504628 0.01336,0.605123 0.0046,1.21045 0.0052,1.815666 0.02591,0.524938 -0.121966,1.028128 -0.241096,1.532826 -0.06522,0.443143 -0.262127,0.843285 -0.431275,1.252241 -0.201925,0.361141 -0.422095,0.712306 -0.606373,1.082948 -0.169316,0.358317 -0.460026,0.612015 -0.784118,0.826561 -0.165847,0.04907 -0.269572,0.147775 -0.37708,0.275439 0,0 2.561227,-1.04685 2.561227,-1.04685 v 0 c 0.126355,-0.08435 0.260664,-0.155105 0.378937,-0.25127 0.303144,-0.267817 0.565115,-0.556525 0.729962,-0.933355 0.200627,-0.363688 0.416185,-0.720222 0.58708,-1.099333 0.179717,-0.418415 0.340992,-0.841507 0.410946,-1.294622 0.118015,-0.520576 0.233242,-1.044268 0.201554,-1.582491 0.0011,-0.606579 -0.0063,-1.213081 -0.0094,-1.819643 -0.0052,-0.516221 -0.0249,-1.031608 -0.09333,-1.544026 -0.05418,-0.391502 -0.09078,-0.780783 -0.07434,-1.176833 -0.0089,-0.443343 -0.02599,-0.887227 -0.08796,-1.326885 -0.06867,-0.454903 -0.192215,-0.895707 -0.266247,-1.348804 0,0 -2.447317,1.308447 -2.447317,1.308447 z" />
    <path
       style="fill:#ffffff;fill-opacity:1;fill-rule:nonzero;stroke:none;stroke-width:0.264583"
       id="path347"
       d="m 19.59369,29.625628 c 0.703503,-0.0266 1.407763,-0.02003 2.111624,-0.01894 0.667561,-0.0032 1.335895,0.01889 2.002928,-0.01098 0.634002,-0.06351 1.267738,-0.120756 1.904506,-0.147013 0.658259,-0.02384 1.316969,-0.02612 1.975573,-0.02733 0.567124,5.29e-4 1.133795,0.02466 1.698609,-0.03429 0.450887,-0.05888 0.903314,-0.101237 1.357394,-0.124179 0.171781,-0.0064 0.342752,0.01307 0.510268,0.0501 0.0222,0.0049 0.07542,0.03877 0.06572,0.0182 -0.01905,-0.04041 -0.06633,-0.05988 -0.09949,-0.08982 0,0 2.492206,-1.249587 2.492206,-1.249587 v 0 c -0.03026,-0.07473 -0.04334,-0.158996 -0.09078,-0.224176 -0.06678,-0.09174 -0.552323,-0.0901 -0.659617,-0.131355 -0.462653,0.01738 -0.924316,0.05244 -1.382842,0.118451 -0.564144,0.07265 -1.126019,0.08169 -1.695302,0.07058 -0.659831,5.29e-4 -1.31981,-0.0021 -1.979419,0.01725 -0.637823,0.02434 -1.276038,0.0525 -1.909004,0.140308 -0.665229,0.06318 -1.334816,0.01572 -2.002247,0.03378 -0.686454,0.0011 -1.373389,0.0085 -2.059446,-0.01894 0,0 -2.240675,1.627947 -2.240675,1.627947 z" />
    <path
       style="fill:#ffffff;fill-opacity:1;fill-rule:nonzero;stroke:none;stroke-width:0.264583"
       id="path347-3"
       d="m 18.247301,41.405834 c 0.703503,-0.0266 1.407763,-0.02003 2.111624,-0.01894 0.667561,-0.0032 1.335895,0.01889 2.002928,-0.01098 0.634002,-0.06351 1.267738,-0.120756 1.904506,-0.147013 0.658259,-0.02384 1.316969,-0.02612 1.975573,-0.02733 0.567124,5.29e-4 1.133795,0.02466 1.698609,-0.03429 0.450887,-0.05888 0.903314,-0.101237 1.357394,-0.124179 0.171781,-0.0064 0.342752,0.01307 0.510268,0.0501 0.0222,0.0049 0.07542,0.03877 0.06572,0.0182 -0.01905,-0.04041 -0.06633,-0.05988 -0.09949,-0.08982 0,0 2.492206,-1.249587 2.492206,-1.249587 v 0 c -0.03026,-0.07473 -0.04334,-0.158996 -0.09078,-0.224176 -0.06678,-0.09174 -0.552323,-0.0901 -0.659617,-0.131355 -0.462653,0.01738 -0.924316,0.05244 -1.382842,0.118451 -0.564144,0.07265 -1.126019,0.08169 -1.695302,0.07058 -0.659831,5.29e-4 -1.31981,-0.0021 -1.979419,0.01725 -0.637823,0.02434 -1.276038,0.0525 -1.909004,0.140308 -0.665229,0.06318 -1.334816,0.01572 -2.002247,0.03378 -0.686454,0.0011 -1.373389,0.0085 -2.059446,-0.01894 0,0 -2.240675,1.627947 -2.240675,1.627947 z" />
    <path
       style="fill:#ffffff;fill-opacity:1;fill-rule:nonzero;stroke:none;stroke-width:0.264583"
       id="path347-5"
       d="m 45.307917,28.898984 c 0.703503,-0.0266 1.407763,-0.02003 2.111624,-0.01894 0.667561,-0.0032 1.335895,0.01889 2.002928,-0.01098 0.634002,-0.06351 1.267738,-0.120756 1.904506,-0.147013 0.658259,-0.02384 1.316969,-0.02612 1.975573,-0.02733 0.567124,5.29e-4 1.133795,0.02466 1.698609,-0.03429 0.450887,-0.05888 0.903314,-0.101237 1.357394,-0.124179 0.171781,-0.0064 0.342752,0.01307 0.510268,0.0501 0.0222,0.0049 0.07542,0.03877 0.06572,0.0182 -0.01905,-0.04041 -0.06633,-0.05988 -0.09949,-0.08982 0,0 2.492206,-1.249587 2.492206,-1.249587 v 0 c -0.03026,-0.07473 -0.04334,-0.158996 -0.09078,-0.224176 -0.06678,-0.09174 -0.552323,-0.0901 -0.659617,-0.131355 -0.462653,0.01738 -0.924316,0.05244 -1.382842,0.118451 -0.564144,0.07265 -1.126019,0.08169 -1.695302,0.07058 -0.659831,5.29e-4 -1.31981,-0.0021 -1.979419,0.01725 -0.637823,0.02434 -1.276038,0.0525 -1.909004,0.140308 -0.665229,0.06318 -1.334816,0.01572 -2.002247,0.03378 -0.686454,0.0011 -1.373389,0.0085 -2.059446,-0.01894 0,0 -2.240675,1.627947 -2.240675,1.627947 z" />
    <path
       style="fill:#ffffff;fill-opacity:1;fill-rule:nonzero;stroke:none;stroke-width:0.264583"
       id="path347-1"
       d="m 43.568469,41.031657 c 0.703503,-0.0266 1.407763,-0.02003 2.111624,-0.01894 0.667561,-0.0032 1.335895,0.01889 2.002928,-0.01098 0.634002,-0.06351 1.267738,-0.120756 1.904506,-0.147013 0.658259,-0.02384 1.316969,-0.02612 1.975573,-0.02733 0.567124,5.29e-4 1.133795,0.02466 1.698609,-0.03429 0.450887,-0.05888 0.903314,-0.101237 1.357394,-0.124179 0.171781,-0.0064 0.342752,0.01307 0.510268,0.0501 0.0222,0.0049 0.07542,0.03877 0.06572,0.0182 -0.01905,-0.04041 -0.06633,-0.05988 -0.09949,-0.08982 0,0 2.492206,-1.249587 2.492206,-1.249587 v 0 c -0.03026,-0.07473 -0.04334,-0.158996 -0.09078,-0.224176 -0.06678,-0.09174 -0.552323,-0.0901 -0.659617,-0.131355 -0.462653,0.01738 -0.924316,0.05244 -1.382842,0.118451 -0.564144,0.07265 -1.126019,0.08169 -1.695302,0.07058 -0.659831,5.29e-4 -1.31981,-0.0021 -1.979419,0.01725 -0.637823,0.02434 -1.276038,0.0525 -1.909004,0.140308 -0.665229,0.06318 -1.334816,0.01572 -2.002247,0.03378 -0.686454,0.0011 -1.373389,0.0085 -2.059446,-0.01894 0,0 -2.240675,1.627947 -2.240675,1.627947 z" />
    <path
       style="fill:#ffffff;fill-opacity:1;fill-rule:nonzero;stroke:none;stroke-width:0.264583"
       id="path391"
       d="m 35.845551,33.556286 c 0.42405,-0.0063 0.848553,-0.058 1.259102,-0.164528 0.34158,-0.111893 0.694375,-0.166817 1.05134,-0.196006 0.36838,-0.02286 0.73769,-0.02159 1.106612,-0.02186 0.374214,5.29e-4 0.748427,0.0013 1.122643,0.0019 0.24955,2.17e-4 0.124778,1.25e-4 0.374317,2.65e-4 0,0 2.229061,-1.619348 2.229061,-1.619348 v 0 c -0.249491,-8.5e-5 -0.124745,-3.2e-5 -0.374242,-1.61e-4 -0.374195,-2.65e-4 -0.74839,-7.94e-4 -1.122585,-0.0019 -0.371845,-7.93e-4 -0.743794,-0.0031 -1.115539,0.0072 -0.367432,0.01513 -0.736941,0.0398 -1.090461,0.149775 -0.386014,0.122542 -0.786583,0.223065 -1.194623,0.21317 0,0 -2.245625,1.63154 -2.245625,1.63154 z" />
    <path
       style="fill:#000000;fill-opacity:1;fill-rule:nonzero;stroke:none;stroke-width:0.264583"
       id="path397"
       d="m 35.097196,57.316549 c 1.095052,-0.04167 2.197573,-0.06594 3.276102,-0.283424 0.323853,-0.0653 0.641289,-0.159158 0.961933,-0.238736 1.247089,-0.36549 2.47243,-0.805746 3.673067,-1.302589 1.21517,-0.589111 2.359933,-1.31214 3.474244,-2.070108 0.499972,-0.366961 1.00652,-0.722005 1.534541,-1.048049 0.811347,-0.49984 2.357178,-1.441307 -1.385525,0.787001 -0.09688,0.05768 0.201252,-0.101794 0.303173,-0.150017 0.215894,-0.10215 0.434945,-0.197495 0.651885,-0.297404 1.402075,-0.687605 2.733093,-1.524053 4.077438,-2.310816 0.143005,-0.08369 0.570643,-0.337097 0.427538,-0.253576 -0.650087,0.37941 -1.298996,0.760833 -1.948492,1.141248 0,0 2.103321,-1.690087 2.103321,-1.690087 v 0 c -0.882682,0.503518 -1.767171,1.00388 -2.648045,1.510551 -0.139796,0.08041 -0.554533,0.329431 -0.413835,0.250616 0.606046,-0.339481 1.20595,-0.689824 1.810067,-1.032724 0.157756,-0.08954 -0.312875,0.183682 -0.470958,0.272643 -0.143301,0.08064 -0.28756,0.159623 -0.433115,0.236114 -0.128312,0.06743 -0.258924,0.130394 -0.388387,0.19559 -0.303086,0.138084 -0.672563,0.263914 -0.960416,0.424638 -1.09152,0.609449 -2.187763,1.218909 -3.241871,1.893414 -0.536533,0.34344 -1.055584,0.71197 -1.575964,1.079267 -0.162481,0.117814 -0.159975,0.116681 -0.314971,0.226642 -0.04933,0.035 -0.200972,0.134295 -0.148251,0.104646 3.96222,-2.228242 2.509554,-1.451727 1.666449,-0.949257 -1.215017,0.580062 -2.498323,1.019437 -3.775536,1.438638 -0.310083,0.08187 -0.616569,0.178826 -0.930245,0.245613 -1.010248,0.215101 -2.050667,0.254986 -3.078523,0.188624 0,0 -2.245624,1.631542 -2.245624,1.631542 z" />
    <path
       style="fill:#000000;fill-opacity:1;fill-rule:nonzero;stroke:none;stroke-width:0.264583"
       id="path419"
       d="m 55.482794,34.318805 c -0.724284,-0.618789 -1.382221,-1.312318 -1.943817,-2.081567 -0.05081,-0.06925 -0.296694,-0.411348 -0.37618,-0.497062 -0.856107,-0.923211 -2.508916,0.910383 -2.969545,1.168349 -0.391507,0.533541 -0.804535,1.051732 -1.204011,1.579994 -0.644668,0.806469 -1.29795,1.604968 -1.916718,2.431648 0,0 2.475939,-1.069314 2.475939,-1.069314 v 0 c 0.600641,-0.826778 1.247791,-1.616471 1.888588,-2.412198 0.419383,-0.525529 0.819745,-1.102558 1.333518,-1.536332 -0.759806,0.417782 -1.518586,0.837433 -2.279417,1.253344 -0.05923,0.03238 0.121455,-0.09155 0.187349,-0.0769 0.247796,0.05512 0.384985,0.381887 0.548243,0.53276 0.594514,0.751901 1.27317,1.42888 1.907519,2.146456 0,0 2.348532,-1.439182 2.348532,-1.439182 z" />
    <path
       style="fill:#000000;fill-opacity:1;fill-rule:nonzero;stroke:none;stroke-width:0.264583"
       id="path419-2"
       d="m 29.836283,34.541841 c -0.724284,-0.618789 -1.382221,-1.312318 -1.943817,-2.081567 -0.05081,-0.06925 -0.296694,-0.411348 -0.37618,-0.497062 -0.856107,-0.923211 -2.508916,0.910383 -2.969545,1.168349 -0.391507,0.533541 -0.804535,1.051732 -1.204011,1.579994 -0.644668,0.806469 -1.29795,1.604968 -1.916718,2.431648 0,0 2.475939,-1.069314 2.475939,-1.069314 v 0 c 0.600641,-0.826778 1.247791,-1.616471 1.888588,-2.412198 0.419383,-0.525529 0.819745,-1.102558 1.333518,-1.536332 -0.759806,0.417782 -1.518586,0.837433 -2.279417,1.253344 -0.05923,0.03238 0.121455,-0.09155 0.187349,-0.0769 0.247796,0.05512 0.384985,0.381887 0.548243,0.53276 0.594514,0.751901 1.27317,1.42888 1.907519,2.146456 0,0 2.348532,-1.439182 2.348532,-1.439182 z" />
    <path
       style="fill:#ffffff;stroke-width:0.264583"
       id="path931"
       d="m 35.800019,10.616115 c 0.774462,-0.302412 1.236924,0.148635 1.734362,0.696796 0.100788,0.179199 0.227724,0.346025 0.302361,0.537597 0.392255,1.006812 0.236111,2.158471 -0.286388,3.086249 -0.150225,0.266746 -0.35156,0.501288 -0.527341,0.751933 -0.732314,0.666978 -0.913355,0.91214 -1.827006,1.39143 -0.03271,0.01716 -0.0043,-0.111806 -0.04027,-0.103249 -0.454157,0.108131 -0.879149,0.32018 -1.332857,0.430179 -1.235445,0.299524 -1.997808,0.308051 -3.269792,0.410118 -2.463387,0.09604 -4.939767,-0.02477 -7.376,0.433261 -1.943964,0.365482 -2.381096,0.592272 -4.271004,1.237686 -0.7246,0.318662 -1.461013,0.611713 -2.173802,0.955985 -1.345886,0.650053 -3.472394,1.842898 -4.751071,2.583134 -1.035857,0.599665 -2.0712953,1.20056 -3.0913087,1.826795 -1.5082481,0.925984 -2.9722339,1.922201 -4.4581675,2.883586 0,0 0.052297,-0.02037 0.052297,-0.02037 v 0 c 0.7647096,-0.493665 1.5196764,-1.002761 2.294129,-1.480994 0.9045416,-0.558567 3.3726622,-2.00466 4.5050192,-2.645237 1.392778,-0.787898 3.1372,-1.768903 4.587743,-2.464763 0.705338,-0.338367 1.431496,-0.631504 2.147244,-0.947256 1.872543,-0.639767 2.271153,-0.855341 4.19526,-1.208595 2.419573,-0.444219 4.880546,-0.325189 7.325865,-0.405507 1.145963,-0.07239 2.098966,-0.08528 3.221326,-0.335316 1.451332,-0.323321 2.316401,-0.860647 3.694176,-1.641026 0.359103,-0.203398 0.705263,-0.432541 1.029144,-0.688328 0.293524,-0.231811 0.544471,-0.512955 0.816703,-0.769433 0.169278,-0.258922 0.369017,-0.500313 0.507831,-0.776765 0.478202,-0.95237 0.496538,-2.130657 0.06194,-3.10078 -0.08731,-0.194887 -0.220062,-0.366042 -0.330094,-0.549064 -0.549132,-0.622912 -1.002123,-1.0678907 -1.872808,-0.7786778 0,0 -0.867487,0.6906178 -0.867487,0.6906178 z" />
    <path
       style="fill:#ffffff;stroke-width:0.264583"
       id="path933"
       d="m 40.29879,12.231176 c -0.233264,0.738736 -0.356058,1.678987 0.157612,2.345269 0.148847,0.193071 0.364578,0.323745 0.546868,0.485617 0.258069,0.119532 0.505275,0.266069 0.774213,0.358597 1.263478,0.434699 2.826168,0.441582 4.139321,0.2893 0.386668,-0.04484 0.768623,-0.123742 1.152936,-0.185614 2.186656,-0.479832 4.351377,-1.131901 6.605568,-1.204927 0.488604,-0.01583 0.977546,0.01851 1.466319,0.02776 0.47752,0.06847 0.95927,0.112083 1.43256,0.20541 0.46292,0.09128 0.913352,0.237494 1.372147,0.34764 1.459214,0.35032 1.444101,0.329879 2.898225,0.606842 0,0 0.0942,-0.06342 0.0942,-0.06342 v 0 c -0.309721,-0.203043 -0.604144,-0.4316 -0.929164,-0.609128 -1.26888,-0.693074 -2.597099,-0.957634 -4.024315,-1.097408 -0.490209,-0.01271 -0.980434,-0.05142 -1.470631,-0.03812 -2.279642,0.06183 -4.470167,0.733784 -6.673897,1.244576 -0.395711,0.07417 -0.788263,0.167818 -1.18713,0.222515 -1.277048,0.17512 -2.935764,0.188648 -4.173929,-0.21106 -0.263403,-0.08503 -0.505023,-0.226705 -0.757536,-0.340058 -0.17639,-0.152302 -0.38239,-0.275895 -0.52917,-0.456907 -0.499319,-0.615768 -0.42935,-1.504403 -0.270671,-2.222262 0,0 -0.623528,0.295378 -0.623528,0.295378 z" />
  </g>
</svg>
